<svg width="113" height="68" viewBox="0 0 113 68" fill="none" xmlns="http://www.w3.org/2000/svg">
<g id="Hand-drawn arrow">
<path id="Vector" d="M109.714 36.2521C110.631 35.6361 110.875 34.3934 110.259 33.4766C109.643 32.5598 108.4 32.3159 107.483 32.9319L109.714 36.2521ZM4.02603 32.5742C3.17747 31.867 1.91634 31.9817 1.20922 32.8302C0.502082 33.6788 0.616731 34.9399 1.46529 35.647L4.02603 32.5742ZM102.565 57.1595C102.269 58.2236 102.892 59.3263 103.956 59.6224C105.02 59.9185 106.123 59.2958 106.419 58.2317L102.565 57.1595ZM110.056 37.6972L111.983 38.2333L111.983 38.2316L110.056 37.6972ZM106.914 31.2262L106.142 33.0714L106.144 33.0722L106.914 31.2262ZM88.2795 21.2686C87.2604 20.8426 86.0889 21.3234 85.6629 22.3425C85.2369 23.3616 85.7177 24.5331 86.7368 24.9591L88.2795 21.2686ZM108.599 34.592C107.483 32.9319 107.484 32.9317 107.484 32.9316C107.484 32.9316 107.484 32.9315 107.484 32.9316C107.484 32.9318 107.483 32.9323 107.482 32.933C107.479 32.9345 107.476 32.9371 107.47 32.9409C107.459 32.9484 107.44 32.9605 107.416 32.9768C107.366 33.0095 107.29 33.0595 107.188 33.1255C106.983 33.2577 106.675 33.454 106.27 33.7045C105.461 34.2056 104.264 34.923 102.735 35.7772C99.6743 37.4863 95.2894 39.7374 90.0077 41.8959C79.4101 46.2268 65.3697 50.1156 51.2305 48.6636L50.8219 52.6427C65.8877 54.1898 80.6335 50.048 91.5209 45.5986C96.9818 43.3669 101.514 41.0404 104.685 39.2695C106.272 38.3836 107.52 37.6354 108.375 37.1058C108.803 36.841 109.133 36.6308 109.359 36.4851C109.471 36.4123 109.558 36.3556 109.617 36.3164C109.647 36.2968 109.67 36.2815 109.686 36.2707C109.694 36.2653 109.701 36.2611 109.705 36.258C109.708 36.2564 109.71 36.2551 109.711 36.2542C109.712 36.2537 109.713 36.2532 109.713 36.2529C109.714 36.2525 109.714 36.2521 108.599 34.592ZM51.2305 48.6636C22.4279 45.7058 7.47438 35.4478 4.02603 32.5742L1.46529 35.647C5.51465 39.0215 21.2145 49.6023 50.8219 52.6427L51.2305 48.6636ZM106.419 58.2317L111.983 38.2333L108.129 37.1611L102.565 57.1595L106.419 58.2317ZM111.983 38.2316C112.984 34.6247 111.151 30.8258 107.683 29.3802L106.144 33.0722C107.742 33.7384 108.592 35.4918 108.129 37.1628L111.983 38.2316ZM107.685 29.3809L88.2795 21.2686L86.7368 24.9591L106.142 33.0714L107.685 29.3809Z" fill="#EDEDED"/>
</g>
</svg>
