<svg width="113" height="68" viewBox="0 0 113 68" fill="none" xmlns="http://www.w3.org/2000/svg">
<g id="Hand-drawn arrow">
<path id="Vector" d="M109.384 31.8077C110.301 32.4237 110.545 33.6664 109.928 34.5832C109.312 35.5001 108.07 35.7439 107.153 35.1279L109.384 31.8077ZM3.6957 35.4857C2.84714 36.1928 1.58602 36.0781 0.878893 35.2296C0.17176 34.381 0.286409 33.1199 1.13497 32.4128L3.6957 35.4857ZM102.235 10.9003C101.939 9.83619 102.561 8.7335 103.625 8.43742C104.69 8.14133 105.792 8.76397 106.088 9.82812L102.235 10.9003ZM109.726 30.3626L111.653 29.8265L111.653 29.8282L109.726 30.3626ZM106.583 36.8336L105.812 34.9884L105.814 34.9876L106.583 36.8336ZM87.9492 46.7912C86.9301 47.2172 85.7586 46.7364 85.3326 45.7173C84.9065 44.6982 85.3873 43.5267 86.4064 43.1007L87.9492 46.7912ZM108.268 33.4678C107.153 35.1279 107.153 35.1281 107.154 35.1283C107.154 35.1282 107.154 35.1283 107.153 35.1282C107.153 35.128 107.153 35.1276 107.151 35.1268C107.149 35.1253 107.145 35.1227 107.14 35.1189C107.128 35.1114 107.11 35.0994 107.085 35.083C107.036 35.0503 106.959 35.0003 106.857 34.9343C106.653 34.8022 106.345 34.6059 105.94 34.3553C105.13 33.8543 103.934 33.1368 102.404 32.2827C99.344 30.5735 94.9591 28.3224 89.6774 26.1639C79.0798 21.833 65.0394 17.9442 50.9002 19.3962L50.4916 15.4171C65.5573 13.87 80.3032 18.0118 91.1906 22.4612C96.6515 24.6929 101.184 27.0194 104.355 28.7903C105.941 29.6763 107.189 30.4244 108.045 30.954C108.473 31.2188 108.803 31.4291 109.028 31.5747C109.141 31.6475 109.227 31.7042 109.287 31.7434C109.317 31.7631 109.34 31.7783 109.356 31.7891C109.364 31.7945 109.37 31.7987 109.375 31.8019C109.377 31.8034 109.379 31.8047 109.381 31.8057C109.381 31.8061 109.382 31.8067 109.383 31.8069C109.383 31.8074 109.384 31.8077 108.268 33.4678ZM50.9002 19.3962C22.0976 22.354 7.14406 32.612 3.6957 35.4857L1.13497 32.4128C5.18433 29.0383 20.8842 18.4576 50.4916 15.4171L50.9002 19.3962ZM106.088 9.82812L111.653 29.8265L107.799 30.8987L102.235 10.9003L106.088 9.82812ZM111.653 29.8282C112.653 33.4351 110.82 37.234 107.353 38.6796L105.814 34.9876C107.412 34.3214 108.262 32.568 107.799 30.897L111.653 29.8282ZM107.355 38.6789L87.9492 46.7912L86.4064 43.1007L105.812 34.9884L107.355 38.6789Z" fill="#EDEDED"/>
</g>
</svg>
